<?xml version="1.0" encoding="utf-8"?>
<?xml-stylesheet type="text/xsl" href="rss1.xsl"?>
<rss version="2.0" xmlns:atom="http://www.w3.org/2005/Atom" xmlns:content="http://purl.org/rss/1.0/modules/content/" xmlns:dc="http://purl.org/dc/elements/1.1/" xmlns:media="http://search.yahoo.com/mrss/">
<channel>
 <title>Getty</title>
 <link>http://www.gettyimg.com/</link>
 <atom:link href="http://www.gettyimg.com/" rel="self" type="application/rss+xml" />

 
                <item>
                <title><![CDATA[【VEVO】WEB-RiP - Chancho en Piedra - La Vida Del Oso [VevoRip Clean AVC 720p] - 2005]]></title>
                <link><![CDATA[https://sharemania.us/threads/chancho-en-piedra-la-vida-del-oso-vevorip-clean-avc-720p-2005.222560/]]></link>
                <description><![CDATA[<article>
<blockquote class="messageText SelectQuoteContainer ugc baseHtml">
<div style="text-align: center"><img src="https://i.imgur.com/DHYZhHD.png" class="bbCodeImage LbImage" alt="[​IMG]" data-url="https://i.imgur.com/DHYZhHD.png" style=""><br>
<br>
<img src="https://i.imgur.com/58kayH8.png" class="bbCodeImage LbImage" alt="[​IMG]" data-url="https://i.imgur.com/58kayH8.png" style="">​</div><br>
<div class="ToggleTriggerAnchor bbCodeSpoilerContainer">
<button type="button" class="button bbCodeSpoilerButton ToggleTrigger Tooltip JsOnly" data-target="> .SpoilerTarget"><span>Spoiler: <span class="SpoilerTitle">MediaInfo</span></span></button>
<div class="SpoilerTarget bbCodeSpoilerText">
<div class="bbCodeBlock bbCodeCode">
<div class="type">Code:</div>
<pre>General
Complete name                  : Chancho en Piedra - La Vida Del Oso [VevoRip Clean AVC 720p] - 2005.mp4
Format                         : MPEG-4
Format profile                 : Base Media
Codec ID                       : isom (isom/iso2/avc1/mp41)
File size                      : 71.8 MiB
Duration                       : 5 min 1 s
Overall bit rate               : 1 998 kb/s
Frame rate                     : 29.970 FPS
Writing application            : Lavf57.44.100

Video
ID                             : 1
Format                         : AVC
Format/Info                    : Advanced Video Codec
Format profile                 : Main@L3.1
Format settings                : CABAC / 4 Ref Frames
Format settings, CABAC         : Yes
Format settings, Reference fra : 4 frames
Codec ID                       : avc1
Codec ID/Info                  : Advanced Video Coding
Duration                       : 5 min 1 s
Bit rate                       : 1 862 kb/s
Width                          : 1 280 pixels
Height                         : 720 pixels
Display aspect ratio           : 16:9
Frame rate mode                : Constant
Frame rate                     : 29.970 (30000/1001) FPS
Color space                    : YUV
Chroma subsampling             : 4:2:0
Bit depth                      : 8 bits
Scan type                      : Progressive
Bits/(Pixel*Frame)             : 0.067
Stream size                    : 66.9 MiB (93%)
Writing library                : x264 core 148
Encoding settings              : cabac=1 / ref=3 / deblock=1:0:0 / analyse=0x1:0x131 / me=umh / subme=10 / psy=1 / psy_rd=0.50:0.00 / mixed_ref=1 / me_range=24 / chroma_me=1 / trellis=2 / 8x8dct=0 / cqm=0 / deadzone=21,11 / fast_pskip=1 / chroma_qp_offset=-2 / threads=8 / lookahead_threads=1 / sliced_threads=0 / nr=0 / decimate=1 / interlaced=0 / bluray_compat=0 / constrained_intra=0 / bframes=3 / b_pyramid=2 / b_adapt=1 / b_bias=0 / direct=1 / weightb=1 / open_gop=0 / weightp=2 / keyint=125 / keyint_min=10 / scenecut=40 / intra_refresh=0 / rc_lookahead=60 / rc=crf / mbtree=1 / crf=23.5 / qcomp=0.55 / qpmin=0 / qpmax=69 / qpstep=4 / vbv_maxrate=2000 / vbv_bufsize=2000 / crf_max=0.0 / nal_hrd=none / filler=0 / ip_ratio=1.40 / aq=1:1.00
Codec configuration box        : avcC

Audio
ID                             : 2
Format                         : AAC LC
Format/Info                    : Advanced Audio Codec Low Complexity
Codec ID                       : mp4a-40-2
Duration                       : 5 min 1 s
Duration_LastFrame             : -1 ms
Bit rate mode                  : Constant
Bit rate                       : 128 kb/s
Channel(s)                     : 2 channels
Channel layout                 : L R
Sampling rate                  : 44.1 kHz
Frame rate                     : 43.066 FPS (1024 SPF)
Compression mode               : Lossy
Stream size                    : 4.60 MiB (6%)
Default                        : Yes
Alternate group                : 1
</pre>
</div></div>
</div><br>
<div style="text-align: center"><b>DOWNLOAD LINK</b><br>
<img src="https://i.imgur.com/yRbU0vs.png" class="bbCodeImage LbImage" alt="[​IMG]" data-url="https://i.imgur.com/yRbU0vs.png" style=""><br>
<div class="bbCodeBlock bbCodeVfcHH HiddenContent">
<div class="attribution type">Hidden Content:</div>
<blockquote>You must either reply or click 'Like' to see the hidden information contained here.</blockquote>
</div></div>
<div class="messageTextEndMarker">&nbsp;</div>
</blockquote>
</article>]]></description>
                <author><![CDATA[ElFunadisimo]]></author>
                </item>

                </channel></rss>